<?xml version="1.0" encoding="UTF-8" standalone="no"?>
<!-- Created with Inkscape (http://www.inkscape.org/) -->

<svg
   xmlns:dc="http://purl.org/dc/elements/1.1/"
   xmlns:cc="http://creativecommons.org/ns#"
   xmlns:rdf="http://www.w3.org/1999/02/22-rdf-syntax-ns#"
   xmlns:svg="http://www.w3.org/2000/svg"
   xmlns="http://www.w3.org/2000/svg"
   xmlns:sodipodi="http://sodipodi.sourceforge.net/DTD/sodipodi-0.dtd"
   xmlns:inkscape="http://www.inkscape.org/namespaces/inkscape"
   width="195.6532mm"
   height="142.97588mm"
   viewBox="0 0 195.6532 142.97588"
   version="1.1"
   id="svg8"
   inkscape:version="0.92.1 r15371"
   sodipodi:docname="schema-galerie.svg"
   inkscape:export-filename="/home/carrere/Téléchargements/communication/piwigo/galerie.png"
   inkscape:export-xdpi="90"
   inkscape:export-ydpi="90">
  <defs
     id="defs2">
    <marker
       inkscape:stockid="Arrow1Lend"
       orient="auto"
       refY="0"
       refX="0"
       id="Arrow1Lend"
       style="overflow:visible"
       inkscape:isstock="true">
      <path
         id="path1220"
         d="M 0,0 5,-5 -12.5,0 5,5 Z"
         style="fill:#476560;fill-opacity:1;fill-rule:evenodd;stroke:#476560;stroke-width:1.00000003pt;stroke-opacity:1"
         transform="matrix(-0.8,0,0,-0.8,-10,0)"
         inkscape:connector-curvature="0" />
    </marker>
    <marker
       inkscape:stockid="Arrow1Lend"
       orient="auto"
       refY="0"
       refX="0"
       id="Arrow1Lend-7"
       style="overflow:visible"
       inkscape:isstock="true">
      <path
         inkscape:connector-curvature="0"
         id="path1220-4"
         d="M 0,0 5,-5 -12.5,0 5,5 Z"
         style="fill:#476560;fill-opacity:1;fill-rule:evenodd;stroke:#476560;stroke-width:1.00000003pt;stroke-opacity:1"
         transform="matrix(-0.8,0,0,-0.8,-10,0)" />
    </marker>
    <marker
       inkscape:stockid="Arrow1Lend"
       orient="auto"
       refY="0"
       refX="0"
       id="Arrow1Lend-3"
       style="overflow:visible"
       inkscape:isstock="true">
      <path
         inkscape:connector-curvature="0"
         id="path1220-2"
         d="M 0,0 5,-5 -12.5,0 5,5 Z"
         style="fill:#000000;fill-opacity:1;fill-rule:evenodd;stroke:#000000;stroke-width:1.00000003pt;stroke-opacity:1"
         transform="matrix(-0.8,0,0,-0.8,-10,0)" />
    </marker>
    <marker
       inkscape:stockid="Arrow1Lend"
       orient="auto"
       refY="0"
       refX="0"
       id="Arrow1Lend-7-0"
       style="overflow:visible"
       inkscape:isstock="true">
      <path
         inkscape:connector-curvature="0"
         id="path1220-4-3"
         d="M 0,0 5,-5 -12.5,0 5,5 Z"
         style="fill:#476560;fill-opacity:1;fill-rule:evenodd;stroke:#476560;stroke-width:1.00000003pt;stroke-opacity:1"
         transform="matrix(-0.8,0,0,-0.8,-10,0)" />
    </marker>
    <marker
       inkscape:stockid="Arrow1Lend"
       orient="auto"
       refY="0"
       refX="0"
       id="Arrow1Lend-7-00"
       style="overflow:visible"
       inkscape:isstock="true">
      <path
         inkscape:connector-curvature="0"
         id="path1220-4-34"
         d="M 0,0 5,-5 -12.5,0 5,5 Z"
         style="fill:#476560;fill-opacity:1;fill-rule:evenodd;stroke:#476560;stroke-width:1.00000003pt;stroke-opacity:1"
         transform="matrix(-0.8,0,0,-0.8,-10,0)" />
    </marker>
    <marker
       inkscape:stockid="Arrow1Lend"
       orient="auto"
       refY="0"
       refX="0"
       id="Arrow1Lend-7-0-2"
       style="overflow:visible"
       inkscape:isstock="true">
      <path
         inkscape:connector-curvature="0"
         id="path1220-4-3-7"
         d="M 0,0 5,-5 -12.5,0 5,5 Z"
         style="fill:#476560;fill-opacity:1;fill-rule:evenodd;stroke:#476560;stroke-width:1.00000003pt;stroke-opacity:1"
         transform="matrix(-0.8,0,0,-0.8,-10,0)" />
    </marker>
    <marker
       inkscape:stockid="Arrow1Lend"
       orient="auto"
       refY="0"
       refX="0"
       id="Arrow1Lend-2"
       style="overflow:visible"
       inkscape:isstock="true">
      <path
         inkscape:connector-curvature="0"
         id="path1220-5"
         d="M 0,0 5,-5 -12.5,0 5,5 Z"
         style="fill:#000000;fill-opacity:1;fill-rule:evenodd;stroke:#000000;stroke-width:1.00000003pt;stroke-opacity:1"
         transform="matrix(-0.8,0,0,-0.8,-10,0)" />
    </marker>
    <marker
       inkscape:stockid="Arrow1Lend"
       orient="auto"
       refY="0"
       refX="0"
       id="Arrow1Lend-2-4"
       style="overflow:visible"
       inkscape:isstock="true">
      <path
         inkscape:connector-curvature="0"
         id="path1220-5-4"
         d="M 0,0 5,-5 -12.5,0 5,5 Z"
         style="fill:#000000;fill-opacity:1;fill-rule:evenodd;stroke:#000000;stroke-width:1.00000003pt;stroke-opacity:1"
         transform="matrix(-0.8,0,0,-0.8,-10,0)" />
    </marker>
    <marker
       inkscape:stockid="Arrow1Lend"
       orient="auto"
       refY="0"
       refX="0"
       id="Arrow1Lend-7-7"
       style="overflow:visible"
       inkscape:isstock="true">
      <path
         inkscape:connector-curvature="0"
         id="path1220-4-0"
         d="M 0,0 5,-5 -12.5,0 5,5 Z"
         style="fill:#476560;fill-opacity:1;fill-rule:evenodd;stroke:#476560;stroke-width:1.00000003pt;stroke-opacity:1"
         transform="matrix(-0.8,0,0,-0.8,-10,0)" />
    </marker>
    <marker
       inkscape:stockid="Arrow1Lend"
       orient="auto"
       refY="0"
       refX="0"
       id="Arrow1Lend-7-0-3"
       style="overflow:visible"
       inkscape:isstock="true">
      <path
         inkscape:connector-curvature="0"
         id="path1220-4-3-6"
         d="M 0,0 5,-5 -12.5,0 5,5 Z"
         style="fill:#476560;fill-opacity:1;fill-rule:evenodd;stroke:#476560;stroke-width:1.00000003pt;stroke-opacity:1"
         transform="matrix(-0.8,0,0,-0.8,-10,0)" />
    </marker>
    <marker
       inkscape:stockid="Arrow1Lend"
       orient="auto"
       refY="0"
       refX="0"
       id="Arrow1Lend-7-00-3"
       style="overflow:visible"
       inkscape:isstock="true">
      <path
         inkscape:connector-curvature="0"
         id="path1220-4-34-6"
         d="M 0,0 5,-5 -12.5,0 5,5 Z"
         style="fill:#476560;fill-opacity:1;fill-rule:evenodd;stroke:#476560;stroke-width:1.00000003pt;stroke-opacity:1"
         transform="matrix(-0.8,0,0,-0.8,-10,0)" />
    </marker>
    <marker
       inkscape:stockid="Arrow1Lend"
       orient="auto"
       refY="0"
       refX="0"
       id="Arrow1Lend-7-5"
       style="overflow:visible"
       inkscape:isstock="true">
      <path
         inkscape:connector-curvature="0"
         id="path1220-4-35"
         d="M 0,0 5,-5 -12.5,0 5,5 Z"
         style="fill:#476560;fill-opacity:1;fill-rule:evenodd;stroke:#476560;stroke-width:1.00000003pt;stroke-opacity:1"
         transform="matrix(-0.8,0,0,-0.8,-10,0)" />
    </marker>
  </defs>
  <sodipodi:namedview
     id="base"
     pagecolor="#ffffff"
     bordercolor="#666666"
     borderopacity="1.0"
     inkscape:pageopacity="0.0"
     inkscape:pageshadow="2"
     inkscape:zoom="0.37922646"
     inkscape:cx="384.71112"
     inkscape:cy="227.81558"
     inkscape:document-units="mm"
     inkscape:current-layer="layer1"
     showgrid="false"
     inkscape:window-width="1678"
     inkscape:window-height="972"
     inkscape:window-x="0"
     inkscape:window-y="26"
     inkscape:window-maximized="1"
     fit-margin-top="0"
     fit-margin-left="0"
     fit-margin-right="0"
     fit-margin-bottom="0" />
  <metadata
     id="metadata5">
    <rdf:RDF>
      <cc:Work
         rdf:about="">
        <dc:format>image/svg+xml</dc:format>
        <dc:type
           rdf:resource="http://purl.org/dc/dcmitype/StillImage" />
        <dc:title />
      </cc:Work>
    </rdf:RDF>
  </metadata>
  <g
     inkscape:label="Calque 1"
     inkscape:groupmode="layer"
     id="layer1"
     transform="translate(-431.31157,-310.15392)">
    <path
       inkscape:connector-curvature="0"
       style="fill:#476560;fill-opacity:1;stroke-width:0.04921082"
       d="m 571.13116,326.06167 c 0.20177,-0.52656 0.31495,-1.10233 0.31495,-1.7027 0,-2.60817 -2.11606,-4.72424 -4.72424,-4.72424 -0.96945,0 -1.87492,0.29527 -2.62293,0.79722 -1.36314,-2.36212 -3.90734,-3.94671 -6.82554,-3.94671 -4.35024,0 -7.87373,3.5235 -7.87373,7.87373 0,0.13287 0.005,0.26574 0.01,0.39861 -2.75581,0.96946 -4.73408,3.59731 -4.73408,6.68775 0,3.91226 3.17409,7.08636 7.08635,7.08636 h 18.10958 c 3.47921,0 6.29899,-2.81978 6.29899,-6.29899 0,-3.04615 -2.16528,-5.59034 -5.03919,-6.17103 z"
       id="path2" />
    <text
       xml:space="preserve"
       style="font-style:normal;font-weight:normal;font-size:2.36661434px;line-height:1.25;font-family:sans-serif;letter-spacing:0px;word-spacing:0px;fill:#476560;fill-opacity:1;stroke:none;stroke-width:0.05916535"
       x="560.41736"
       y="342.47662"
       id="text79"><tspan
         id="tspan4612"
         sodipodi:role="line"
         x="560.41736"
         y="342.47662"
         style="font-style:normal;font-variant:normal;font-weight:normal;font-stretch:normal;font-size:3.88055563px;font-family:Carlito;-inkscape-font-specification:Carlito;text-align:center;text-anchor:middle;fill:#476560;fill-opacity:1;stroke-width:0.05916535">Dépôt Git</tspan></text>
    <path
       inkscape:connector-curvature="0"
       style="fill:#476560;fill-opacity:1;stroke-width:0.03025747"
       d="m 569.1372,380.72859 v 2.90471 c 0,0.80213 -0.65023,1.45236 -1.45236,1.45236 h -14.52358 c -0.80212,0 -1.45236,-0.65023 -1.45236,-1.45236 v -2.90471 c 0,-0.80213 0.65024,-1.45236 1.45236,-1.45236 h 14.52358 c 0.80213,0 1.45236,0.65023 1.45236,1.45236 z m -1.45236,-2.4206 a 2.4071933,2.4071933 0 0 1 0.93124,0.18654 l -2.92066,-4.38101 a 1.4524492,1.4524492 0 0 0 -1.20846,-0.64672 h -8.12782 a 1.4523584,1.4523584 0 0 0 -1.20842,0.64672 l -2.92069,4.38101 a 2.4071933,2.4071933 0 0 1 0.93123,-0.18654 z m -1.45235,2.90472 c -0.53475,0 -0.96824,0.4335 -0.96824,0.96824 0,0.53474 0.43349,0.96824 0.96824,0.96824 0.53473,0 0.96823,-0.4335 0.96823,-0.96824 0,-0.53474 -0.4335,-0.96824 -0.96823,-0.96824 z m -2.90472,0 c -0.53474,0 -0.96824,0.4335 -0.96824,0.96824 0,0.53474 0.4335,0.96824 0.96824,0.96824 0.53474,0 0.96824,-0.4335 0.96824,-0.96824 0,-0.53474 -0.4335,-0.96824 -0.96824,-0.96824 z"
       id="path2-7" />
    <text
       xml:space="preserve"
       style="font-style:normal;font-weight:normal;font-size:2.36661434px;line-height:1.25;font-family:sans-serif;letter-spacing:0px;word-spacing:0px;fill:#476560;fill-opacity:1;stroke:none;stroke-width:0.05916535"
       x="560.4458"
       y="389.22064"
       id="text79-5"><tspan
         id="tspan4598"
         sodipodi:role="line"
         x="560.4458"
         y="389.22064"
         style="font-style:normal;font-variant:normal;font-weight:normal;font-stretch:normal;font-size:3.88055563px;font-family:Carlito;-inkscape-font-specification:Carlito;text-align:center;text-anchor:middle;fill:#476560;fill-opacity:1;stroke-width:0.05916535">Sauvegarde locale</tspan></text>
    <g
       id="g6005">
      <path
         id="path2-0"
         d="m 512.87942,375.88308 c 0.20177,-0.52656 0.31495,-1.10233 0.31495,-1.7027 0,-2.60817 -2.11607,-4.72424 -4.72424,-4.72424 -0.96945,0 -1.87493,0.29527 -2.62293,0.79722 -1.36315,-2.36212 -3.90734,-3.94671 -6.82554,-3.94671 -4.35024,0 -7.87373,3.52349 -7.87373,7.87373 0,0.13287 0.005,0.26574 0.01,0.39861 -2.75581,0.96945 -4.73408,3.59731 -4.73408,6.68775 0,3.91227 3.17409,7.08637 7.08635,7.08637 h 18.10958 c 3.47921,0 6.29898,-2.81978 6.29898,-6.299 0,-3.04615 -2.16527,-5.59035 -5.03918,-6.17103 z"
         style="fill:#476560;fill-opacity:1;stroke-width:0.04921082"
         inkscape:connector-curvature="0" />
      <path
         id="path2-6"
         d="m 508.41145,377.24566 v 7.02017 c 0,0.64596 -0.52408,1.17003 -1.17003,1.17003 h -10.14025 c -0.64595,0 -1.17002,-0.52407 -1.17002,-1.17003 v -7.02017 c 0,-0.64595 0.52407,-1.17002 1.17002,-1.17002 h 2.14506 l 0.29982,-0.80196 c 0.17062,-0.45583 0.60695,-0.75808 1.09446,-0.75808 h 3.05914 c 0.48751,0 0.92384,0.30225 1.09447,0.75808 l 0.30226,0.80196 h 2.14505 c 0.64595,0 1.17003,0.52407 1.17002,1.17002 z m -3.31508,3.51009 c 0,-1.61366 -1.31141,-2.92507 -2.92507,-2.92507 -1.61367,0 -2.92507,1.31141 -2.92507,2.92507 0,1.61366 1.3114,2.92507 2.92507,2.92507 1.61366,0 2.92507,-1.31141 2.92507,-2.92507 z m -0.78002,0 c 0,1.18221 -0.96284,2.14505 -2.14505,2.14505 -1.18222,0 -2.14506,-0.96284 -2.14506,-2.14505 0,-1.18222 0.96284,-2.14505 2.14506,-2.14505 1.18221,0 2.14505,0.96283 2.14505,2.14505 z"
         style="fill:#ffffff;fill-opacity:1;stroke-width:0.02437559"
         inkscape:connector-curvature="0" />
      <text
         id="text79-1"
         y="394.31619"
         x="496.89996"
         style="font-style:normal;font-weight:normal;font-size:2.36661434px;line-height:1.25;font-family:sans-serif;letter-spacing:0px;word-spacing:0px;fill:#476560;fill-opacity:1;stroke:none;stroke-width:0.05916535"
         xml:space="preserve"><tspan
           style="font-style:normal;font-variant:normal;font-weight:normal;font-stretch:normal;font-size:3.88055563px;font-family:Carlito;-inkscape-font-specification:Carlito;fill:#476560;fill-opacity:1;stroke-width:0.05916535"
           y="394.31619"
           x="496.89996"
           id="tspan77-3"
           sodipodi:role="line">Piwigo</tspan></text>
    </g>
    <text
       xml:space="preserve"
       style="font-style:normal;font-weight:normal;font-size:2.36661434px;line-height:1.25;font-family:sans-serif;letter-spacing:0px;word-spacing:0px;fill:#476560;fill-opacity:1;stroke:none;stroke-width:0.05916535"
       x="457.26669"
       y="387.13495"
       id="text79-1-5-3"><tspan
         sodipodi:role="line"
         id="tspan77-3-9-4"
         x="457.26669"
         y="387.13495"
         style="font-style:normal;font-variant:normal;font-weight:normal;font-stretch:normal;font-size:3.88055563px;font-family:Carlito;-inkscape-font-specification:Carlito;fill:#476560;fill-opacity:1;stroke-width:0.05916535">Upload</tspan></text>
    <text
       xml:space="preserve"
       style="font-style:normal;font-weight:normal;font-size:2.36661434px;line-height:1.25;font-family:sans-serif;letter-spacing:0px;word-spacing:0px;fill:#476560;fill-opacity:1;stroke:none;stroke-width:0.05916535"
       x="503.72925"
       y="406.3223"
       id="text79-1-5-3-0-0"><tspan
         sodipodi:role="line"
         id="tspan77-3-9-4-8-7"
         x="503.72925"
         y="406.3223"
         style="font-style:normal;font-variant:normal;font-weight:normal;font-stretch:normal;font-size:3.88055563px;font-family:Carlito;-inkscape-font-specification:Carlito;text-align:start;text-anchor:start;fill:#476560;fill-opacity:1;stroke-width:0.05916535">- Recherche</tspan><tspan
         id="tspan1052-6"
         sodipodi:role="line"
         x="503.72925"
         y="411.173"
         style="font-style:normal;font-variant:normal;font-weight:normal;font-stretch:normal;font-size:3.88055563px;font-family:Carlito;-inkscape-font-specification:Carlito;text-align:start;text-anchor:start;fill:#476560;fill-opacity:1;stroke-width:0.05916535">- Téléchargement</tspan></text>
    <text
       xml:space="preserve"
       style="font-style:normal;font-weight:normal;font-size:2.36661458px;line-height:1.25;font-family:sans-serif;letter-spacing:0px;word-spacing:0px;fill:#476560;fill-opacity:1;stroke:none;stroke-width:0.05916535"
       x="504.24149"
       y="338.14502"
       id="text79-1-5-3-0-3-5"><tspan
         sodipodi:role="line"
         x="504.24149"
         y="338.14502"
         style="font-style:normal;font-variant:normal;font-weight:normal;font-stretch:normal;font-size:3.88055563px;font-family:Carlito;-inkscape-font-specification:Carlito;text-align:start;text-anchor:start;fill:#476560;fill-opacity:1;stroke-width:0.05916535"
         id="tspan1135">- Sélection</tspan><tspan
         sodipodi:role="line"
         x="504.24149"
         y="342.99573"
         style="font-style:normal;font-variant:normal;font-weight:normal;font-stretch:normal;font-size:3.88055563px;font-family:Carlito;-inkscape-font-specification:Carlito;text-align:start;text-anchor:start;fill:#476560;fill-opacity:1;stroke-width:0.05916535"
         id="tspan6376">- Classement</tspan><tspan
         sodipodi:role="line"
         x="504.24149"
         y="347.84641"
         style="font-style:normal;font-variant:normal;font-weight:normal;font-stretch:normal;font-size:3.88055563px;font-family:Carlito;-inkscape-font-specification:Carlito;text-align:start;text-anchor:start;fill:#476560;fill-opacity:1;stroke-width:0.05916535"
         id="tspan6378">- Indexation</tspan></text>
    <text
       xml:space="preserve"
       style="font-style:normal;font-weight:normal;font-size:2.36661458px;line-height:1.25;font-family:sans-serif;letter-spacing:0px;word-spacing:0px;fill:#476560;fill-opacity:1;stroke:none;stroke-width:0.05916535"
       x="583.93689"
       y="339.11856"
       id="text79-5-1"><tspan
         id="tspan4606"
         sodipodi:role="line"
         x="583.93689"
         y="339.11856"
         style="font-style:normal;font-variant:normal;font-weight:normal;font-stretch:normal;font-size:3.88055563px;font-family:Carlito;-inkscape-font-specification:Carlito;fill:#476560;fill-opacity:1;stroke-width:0.05916535">Clone</tspan></text>
    <path
       inkscape:connector-curvature="0"
       style="fill:#4f566b;fill-opacity:1;stroke-width:0.03447933"
       d="m 616.72049,326.57608 c 2.43769,0 4.41336,-1.97566 4.41336,-4.41336 0,-2.43768 -1.97567,-4.41335 -4.41336,-4.41335 -2.43769,0 -4.41335,1.97567 -4.41335,4.41335 0,2.4377 1.97565,4.41336 4.41335,4.41336 z m 3.08935,1.10334 h -0.57581 c -0.76544,0.35169 -1.61708,0.55166 -2.51355,0.55166 -0.89647,0 -1.74464,-0.19997 -2.51355,-0.55166 h -0.57579 c -2.55837,0 -4.63402,2.07565 -4.63402,4.63402 v 1.43434 c 0,0.9137 0.74131,1.655 1.655,1.655 h 12.13672 c 0.91369,0 1.65501,-0.7413 1.65501,-1.655 v -1.43434 c 0,-2.55837 -2.07566,-4.63402 -4.63401,-4.63402 z"
       id="path2-35-0-2" />
    <path
       style="fill:#476560;fill-opacity:1;stroke:#476560;stroke-width:0.82651103;stroke-linecap:butt;stroke-linejoin:miter;stroke-miterlimit:4;stroke-dasharray:none;stroke-opacity:1;marker-end:url(#Arrow1Lend-7)"
       d="m 459.24215,381.76443 25.11933,-0.31325"
       id="path1517-0"
       inkscape:connector-curvature="0" />
    <path
       style="fill:#476560;fill-opacity:1;stroke:#476560;stroke-width:0.82700002;stroke-linecap:butt;stroke-linejoin:miter;stroke-miterlimit:4;stroke-dasharray:none;stroke-opacity:1;marker-end:url(#Arrow1Lend-7-0)"
       d="m 502.02132,336.86086 0.31325,25.11934"
       id="path1517-0-7"
       inkscape:connector-curvature="0" />
    <path
       style="fill:#476560;fill-opacity:1;stroke:#476560;stroke-width:0.82651103;stroke-linecap:butt;stroke-linejoin:miter;stroke-miterlimit:4;stroke-dasharray:none;stroke-opacity:1;marker-end:url(#Arrow1Lend-7-0-2)"
       d="m 560.27297,371.0552 0.31326,-25.11934"
       id="path1517-0-7-4"
       inkscape:connector-curvature="0" />
    <text
       xml:space="preserve"
       style="font-style:normal;font-weight:normal;font-size:2.20611382px;line-height:1.25;font-family:sans-serif;letter-spacing:0px;word-spacing:0px;fill:#4f566b;fill-opacity:1;stroke:none;stroke-width:0.05515284"
       x="616.69769"
       y="339.09103"
       id="text79-5-7-1"><tspan
         id="tspan4598-3-2"
         sodipodi:role="line"
         x="617.17725"
         y="339.09103"
         style="font-style:normal;font-variant:normal;font-weight:normal;font-stretch:normal;font-size:4.23333311px;font-family:Carlito;-inkscape-font-specification:Carlito;text-align:center;text-anchor:middle;fill:#4f566b;fill-opacity:1;stroke-width:0.05515284">Membre de </tspan><tspan
         sodipodi:role="line"
         x="616.69769"
         y="344.38269"
         style="font-style:normal;font-variant:normal;font-weight:normal;font-stretch:normal;font-size:4.23333311px;font-family:Carlito;-inkscape-font-specification:Carlito;text-align:center;text-anchor:middle;fill:#4f566b;fill-opacity:1;stroke-width:0.05515284"
         id="tspan5299">l'association</tspan></text>
    <path
       style="fill:#476560;fill-opacity:1;stroke:#476560;stroke-width:0.82651103;stroke-linecap:butt;stroke-linejoin:miter;stroke-miterlimit:4;stroke-dasharray:none;stroke-opacity:1;marker-end:url(#Arrow1Lend-7-7)"
       d="m 578.52127,330.35882 25.11933,-0.31325"
       id="path1517-0-93"
       inkscape:connector-curvature="0" />
    <g
       id="g4782"
       transform="translate(64.401886,18.03669)">
      <path
         inkscape:connector-curvature="0"
         style="fill:#9d9f6f;fill-opacity:1;stroke:#9d9f6f;stroke-width:0.02820496;stroke-opacity:1"
         d="m 437.7694,420.89932 c 1.9941,0 3.61024,-1.61615 3.61024,-3.61024 0,-1.99409 -1.61615,-3.61023 -3.61024,-3.61023 -1.99408,0 -3.61022,1.61614 -3.61022,3.61023 0,1.99409 1.61615,3.61024 3.61022,3.61024 z m 2.52717,0.90257 h -0.47102 c -0.62616,0.28768 -1.32283,0.45127 -2.05615,0.45127 -0.73333,0 -1.42715,-0.16359 -2.05613,-0.45127 h -0.47104 c -2.0928,0 -3.79073,1.69792 -3.79073,3.79073 v 1.17333 c 0,0.74743 0.6064,1.35384 1.35383,1.35384 h 9.92815 c 0.74743,0 1.35383,-0.60641 1.35383,-1.35384 v -1.17333 c 0,-2.09281 -1.69794,-3.79073 -3.79074,-3.79073 z"
         id="path2-35-5" />
      <text
         xml:space="preserve"
         style="font-style:normal;font-weight:normal;font-size:1.86562574px;line-height:1.25;font-family:sans-serif;letter-spacing:0px;word-spacing:0px;fill:#9d9f6f;fill-opacity:1;stroke:#9d9f6f;stroke-width:0.04664064;stroke-opacity:1"
         x="437.77164"
         y="434.33606"
         id="text79-5-7"><tspan
           sodipodi:role="line"
           x="437.77164"
           y="434.33606"
           style="font-style:normal;font-variant:normal;font-weight:normal;font-stretch:normal;font-size:4.55351973px;font-family:Carlito;-inkscape-font-specification:Carlito;text-align:center;text-anchor:middle;fill:#9d9f6f;fill-opacity:1;stroke:#9d9f6f;stroke-width:0.04664064;stroke-opacity:1"
           id="tspan4652">Graphiste</tspan></text>
    </g>
    <g
       id="g4787"
       transform="translate(4.1322167,17.548986)">
      <path
         id="path2-35-0-3"
         d="m 498.03906,300.08391 c 2.06147,0 3.73222,-1.67073 3.73222,-3.7322 0,-2.06145 -1.67075,-3.7322 -3.73222,-3.7322 -2.06144,0 -3.73219,1.67075 -3.73219,3.7322 0,2.06147 1.67075,3.7322 3.73219,3.7322 z m 2.61255,0.93306 h -0.48693 c -0.6473,0.2974 -1.36751,0.46652 -2.12562,0.46652 -0.75809,0 -1.47538,-0.16912 -2.12559,-0.46652 h -0.48695 c -2.1635,0 -3.9188,1.7553 -3.9188,3.91882 v 1.21297 c 0,0.77267 0.62689,1.39957 1.39956,1.39957 h 10.26357 c 0.77269,0 1.39958,-0.6269 1.39958,-1.39957 v -1.21297 c 0,-2.16352 -1.75531,-3.91882 -3.91882,-3.91882 z"
         style="fill:#9f9070;fill-opacity:1;stroke:#9f9070;stroke-width:0.02915784;stroke-opacity:1"
         inkscape:connector-curvature="0" />
      <text
         id="text79-5-7-2-6"
         y="315.24786"
         x="497.94125"
         style="font-style:normal;font-weight:normal;font-size:1.86562574px;line-height:1.25;font-family:sans-serif;letter-spacing:0px;word-spacing:0px;fill:#9f9070;fill-opacity:1;stroke:#9f9070;stroke-width:0.04664064;stroke-opacity:1"
         xml:space="preserve"><tspan
           id="tspan4662-7"
           style="font-style:normal;font-variant:normal;font-weight:normal;font-stretch:normal;font-size:4.55351973px;font-family:Carlito;-inkscape-font-specification:Carlito;text-align:center;text-anchor:middle;fill:#9f9070;fill-opacity:1;stroke:#9f9070;stroke-width:0.04664064;stroke-opacity:1"
           y="315.24786"
           x="497.94125"
           sodipodi:role="line">Iconographe</tspan></text>
    </g>
    <g
       id="g4777"
       transform="translate(20.637507)">
      <path
         id="path2-35"
         d="m 422.40803,376.00152 c 2.06145,0 3.7322,-1.67076 3.7322,-3.73221 0,-2.06146 -1.67075,-3.73219 -3.7322,-3.73219 -2.06147,0 -3.7322,1.67073 -3.7322,3.73219 0,2.06145 1.67073,3.73221 3.7322,3.73221 z m 2.61254,0.93305 h -0.48694 c -0.6473,0.2974 -1.36749,0.46652 -2.1256,0.46652 -0.75811,0 -1.4754,-0.16912 -2.12561,-0.46652 h -0.48693 c -2.16351,0 -3.91881,1.75529 -3.91881,3.91881 v 1.21296 c 0,0.77269 0.62689,1.39959 1.39957,1.39959 h 10.26357 c 0.77267,0 1.39956,-0.6269 1.39956,-1.39959 v -1.21296 c 0,-2.16352 -1.75531,-3.91881 -3.91881,-3.91881 z"
         style="fill:#58506d;fill-opacity:1;stroke:#58506d;stroke-width:0.02915784;stroke-opacity:1"
         inkscape:connector-curvature="0" />
      <text
         id="text79-5-7-5"
         y="389.29102"
         x="422.33243"
         style="font-style:normal;font-weight:normal;font-size:1.86562574px;line-height:1.25;font-family:sans-serif;letter-spacing:0px;word-spacing:0px;fill:#58506d;fill-opacity:1;stroke:#58506d;stroke-width:0.04664064;stroke-opacity:1"
         xml:space="preserve"><tspan
           style="font-style:normal;font-variant:normal;font-weight:normal;font-stretch:normal;font-size:4.55351973px;font-family:Carlito;-inkscape-font-specification:Carlito;text-align:center;text-anchor:middle;fill:#58506d;fill-opacity:1;stroke:#58506d;stroke-width:0.04664064;stroke-opacity:1"
           y="389.29102"
           x="422.33243"
           sodipodi:role="line"
           id="tspan4598-3-6">Photographe</tspan></text>
    </g>
    <g
       id="g12"
       transform="matrix(0.01736902,0,0,-0.01736902,552.44299,336.54661)"
       style="fill:#ffffff;fill-opacity:1">
      <path
         d="M 901.547,500.352 500.355,901.527 c -23.093,23.11 -60.566,23.11 -83.691,0 L 333.363,818.211 439.039,712.535 c 24.559,8.293 52.723,2.727 72.293,-16.847 19.688,-19.696 25.207,-48.102 16.699,-72.75 L 629.887,521.094 c 24.648,8.496 53.066,3.004 72.754,-16.711 27.5,-27.492 27.5,-72.059 0,-99.574 -27.52,-27.516 -72.078,-27.516 -99.61,0 -20.683,20.703 -25.801,51.097 -15.312,76.582 l -95,94.992 V 326.414 c 6.699,-3.32 13.027,-7.742 18.613,-13.312 27.5,-27.497 27.5,-72.059 0,-99.598 -27.5,-27.488 -72.09,-27.488 -99.57,0 -27.5,27.539 -27.5,72.101 0,99.598 6.797,6.789 14.668,11.925 23.066,15.363 v 252.281 c -8.398,3.438 -16.25,8.531 -23.066,15.367 -20.828,20.821 -25.84,51.395 -15.157,76.977 L 292.426,777.285 17.3281,502.211 c -23.10544,-23.129 -23.10544,-60.602 0,-83.711 L 418.539,17.3242 c 23.098,-23.10545 60.559,-23.10545 83.691,0 L 901.547,416.641 c 23.117,23.113 23.117,60.605 0,83.711"
         style="fill:#ffffff;fill-opacity:1;fill-rule:nonzero;stroke:none"
         id="path14"
         inkscape:connector-curvature="0" />
    </g>
    <path
       style="fill:#476560;fill-opacity:1;stroke:#476560;stroke-width:0.82700002;stroke-linecap:butt;stroke-linejoin:miter;stroke-miterlimit:4;stroke-dasharray:none;stroke-opacity:1;marker-end:url(#Arrow1Lend-7-0-3)"
       d="m 502.02132,401.59953 0.31325,25.11934"
       id="path1517-0-7-7"
       inkscape:connector-curvature="0" />
    <path
       style="fill:#476560;fill-opacity:1;stroke:#476560;stroke-width:0.82651103;stroke-linecap:butt;stroke-linejoin:miter;stroke-miterlimit:4;stroke-dasharray:none;stroke-opacity:1;marker-end:url(#Arrow1Lend-7-5)"
       d="m 521.15504,381.76443 25.11933,-0.31325"
       id="path1517-0-6"
       inkscape:connector-curvature="0" />
  </g>
</svg>
