<?xml version="1.0" encoding="UTF-8" standalone="no"?>
<svg
    xmlns:rdf="http://www.w3.org/1999/02/22-rdf-syntax-ns#"
    xmlns:svg="http://www.w3.org/2000/svg"
    xmlns="http://www.w3.org/2000/svg"
    xmlns:xlink="http://www.w3.org/1999/xlink"
    xmlns:sodipodi="http://sodipodi.sourceforge.net/DTD/sodipodi-0.dtd"
    xmlns:inkscape="http://www.inkscape.org/namespaces/inkscape"
    version="1.1"
    id="Ebene_1"
    x="0px"
    y="0px"
    width="74.657074"
    height="90"
    viewBox="0 0 74.657078 90"
    enable-background="new 0 0 127.561 141.73"
    xml:space="preserve"
    inkscape:version="0.48.5 r10040"
    sodipodi:docname="pdf.svg"
    inkscape:export-filename="/home/carrere/Downloads/redaction-technique.org/graphics/pdf.png"
    inkscape:export-xdpi="119"
    inkscape:export-ydpi="119">
  <defs
      id="defs69">
    <linearGradient
        inkscape:collect="always"
        xlink:href="#SVGID_2_"
        id="linearGradient3373"
        gradientUnits="userSpaceOnUse"
        gradientTransform="matrix(0.9874,-0.1583,-0.1583,-0.9874,-224.2662,-221.1071)"
        x1="193.9431"
        y1="-303.2229"
        x2="272.90549"
        y2="-338.37921" />
    <linearGradient
        inkscape:collect="always"
        xlink:href="#SVGID_3_"
        id="linearGradient3375"
        gradientUnits="userSpaceOnUse"
        gradientTransform="matrix(0.9874,-0.1583,-0.1583,-0.9874,-224.2662,-221.1071)"
        x1="224.3367"
        y1="-306.47391"
        x2="224.3367"
        y2="-284.38989" />
  </defs>
  <sodipodi:namedview
      pagecolor="#ffffff"
      bordercolor="#666666"
      borderopacity="1"
      objecttolerance="10"
      gridtolerance="10"
      guidetolerance="10"
      inkscape:pageopacity="0"
      inkscape:pageshadow="2"
      inkscape:window-width="1056"
      inkscape:window-height="577"
      id="namedview67"
      showgrid="false"
      fit-margin-top="0"
      fit-margin-left="0"
      fit-margin-right="0"
      fit-margin-bottom="0"
      inkscape:zoom="1.665138"
      inkscape:cx="-53.388901"
      inkscape:cy="31.55562"
      inkscape:window-x="0"
      inkscape:window-y="0"
      inkscape:window-maximized="0"
      inkscape:current-layer="Ebene_1" />
  <linearGradient
      id="SVGID_1_"
      gradientUnits="userSpaceOnUse"
      x1="314.34549"
      y1="-328.56369"
      x2="297.4563"
      y2="-249.1064"
      gradientTransform="matrix(1,0,0,-1,-233.8203,-209.0952)">
    <stop
        offset="0"
        style="stop-color:#EC865B"
        id="stop4" />
    <stop
        offset="0.8"
        style="stop-color:#F7E937"
        id="stop6" />
    <stop
        offset="0.9212"
        style="stop-color:#FFF0A2"
        id="stop8" />
    <stop
        offset="1"
        style="stop-color:#F7E937"
        id="stop10" />
  </linearGradient>
  <linearGradient
      id="SVGID_2_"
      gradientUnits="userSpaceOnUse"
      x1="193.9431"
      y1="-303.2229"
      x2="272.90549"
      y2="-338.37921"
      gradientTransform="matrix(0.9874,-0.1583,-0.1583,-0.9874,-224.2662,-221.1071)">
    <stop
        offset="0"
        style="stop-color:#EFEEEE"
        id="stop15" />
    <stop
        offset="1"
        style="stop-color:#B4B4B4"
        id="stop17" />
  </linearGradient>
  <g
      id="g21"
      transform="matrix(1.8869503,0,0,1.9027887,-89.267599,-94.802644)">
    <path
        d="m 50.23,96.62 c -0.396,0 -0.778,-0.107 -1.14,-0.323 -0.591,-0.351 -1.016,-0.977 -1.194,-1.762 -0.208,-0.911 -0.042,-1.893 0.443,-2.624 0.776,-1.169 1.394,-1.932 2.045,-2.739 l 0.079,-0.097 c 0.717,-0.889 3.099,-2.646 3.199,-2.721 l 0.627,0.776 c -0.735,0.649 -2.754,2.599 -3.249,3.806 -0.575,1.398 -0.068,2.755 0.158,2.904 0.117,0.054 0.216,0.131 0.304,0.197 0.046,0.036 0.115,0.09 0.144,0.101 0.035,-0.031 0.533,-0.345 1.77,-3.45 1.598,-4.013 2.873,-10.392 3.56,-13.818 0.159,-0.801 0.288,-1.438 0.379,-1.842 0.238,-1.058 0.725,-3.815 1.141,-6.675 C 56.92,66.739 55.988,65.31 55.364,64.352 55.093,63.937 54.88,63.61 54.726,63.444 53.584,62.212 50.745,55.548 54.512,52.026 c 0.906,-0.848 2.41,-1.703 3.726,-1.703 0.836,0 1.521,0.339 1.982,0.981 1,1.394 2.485,5.148 1.283,14.677 2.152,2.171 4.733,4.533 7.667,5.876 0.969,0.443 1.959,0.849 2.95,1.207 1.631,-0.772 3.174,-1.362 4.362,-1.665 1.526,-0.39 4.631,-0.968 6.928,-0.968 0.711,0 2.876,0 2.955,1.333 0.123,2.093 -1.036,3.429 -4.003,4.613 -1.461,0.585 -2.865,0.857 -4.421,0.857 l 0,0 c -1.997,0 -4.253,-0.458 -6.89,-1.398 -3.848,2.043 -8.288,4.953 -10.216,6.331 -2.404,1.724 -2.625,1.724 -2.802,1.724 h -0.138 c -1.349,5.106 -2.67,8.599 -3.845,10.042 -1.491,1.834 -2.705,2.687 -3.82,2.687 z M 60.787,70.567 c -0.821,4.486 -1.668,8.467 -2.509,11.835 0.659,-0.584 1.848,-1.531 3.96,-3.161 2.125,-1.642 4.281,-3.101 6.422,-4.346 -0.739,-0.315 -1.504,-0.663 -2.284,-1.037 -2.075,-0.999 -3.941,-2.149 -5.563,-3.427 -0.01,0.046 -0.018,0.091 -0.026,0.136 z m 14.338,3.424 c 1.593,0.402 3.037,0.612 4.234,0.612 0.522,0 1.003,-0.041 1.424,-0.12 2.413,-0.456 2.776,-0.92 2.816,-0.985 -0.015,-0.005 -0.063,-0.083 -0.232,-0.206 -0.187,-0.135 -0.688,-0.359 -1.965,-0.359 -1.554,0 -3.704,0.345 -5.899,0.944 -0.119,0.033 -0.245,0.07 -0.378,0.114 z M 56.149,52.905 c -0.532,0 -0.67,1.148 -0.706,1.642 -0.167,2.376 0.952,6.218 3.357,8.654 0.094,0.094 0.188,0.19 0.283,0.288 0.067,-0.806 0.092,-1.42 0.073,-1.831 -0.133,-2.854 -0.807,-7.275 -1.886,-8.171 -0.607,-0.507 -0.963,-0.582 -1.121,-0.582 z"
        id="path23"
        inkscape:connector-curvature="0"
        style="fill:#de1617" />
    <path
        d="m 58.236,50.823 c 0.616,0 1.178,0.218 1.576,0.773 1.017,1.417 2.364,5.293 1.163,14.563 2.221,2.253 4.927,4.752 7.984,6.152 1.05,0.48 2.122,0.916 3.187,1.293 1.856,-0.894 3.387,-1.448 4.459,-1.723 1.585,-0.403 4.637,-0.951 6.804,-0.951 1.392,0 2.418,0.227 2.456,0.861 0.096,1.627 -0.604,2.889 -3.689,4.12 -1.197,0.479 -2.543,0.821 -4.234,0.821 -1.822,0 -4.049,-0.396 -6.927,-1.443 -3.762,1.979 -8.255,4.886 -10.47,6.47 -1.396,1 -2.368,1.63 -2.511,1.63 -0.187,0 1.022,-1.063 4.509,-3.755 2.623,-2.024 5.086,-3.608 7.252,-4.813 -0.994,-0.398 -2.057,-0.866 -3.203,-1.417 -2.593,-1.247 -4.582,-2.597 -6.125,-3.903 -0.055,0.321 -0.11,0.644 -0.172,0.975 -2.274,12.428 -4.712,20.778 -6.631,23.14 -1.429,1.756 -2.52,2.503 -3.434,2.503 -0.313,0 -0.606,-0.088 -0.884,-0.253 -1.089,-0.646 -1.384,-2.486 -0.591,-3.68 0.794,-1.195 1.411,-1.95 2.097,-2.798 0.685,-0.85 3.105,-2.634 3.105,-2.634 0,0 -2.732,2.408 -3.381,3.99 -0.648,1.58 -0.127,3.302 0.404,3.545 0.202,0.093 0.382,0.343 0.637,0.343 0.415,0 1.029,-0.665 2.262,-3.762 1.99,-4.997 3.481,-13.605 3.961,-15.734 0.25,-1.11 0.765,-4.046 1.184,-6.96 -2.396,-2.401 -3.351,-4.443 -3.934,-5.073 -0.991,-1.071 -3.736,-7.443 -0.239,-10.713 0.821,-0.765 2.204,-1.567 3.385,-1.567 m 1.243,13.793 c 0.135,-1.264 0.209,-2.333 0.179,-2.982 -0.118,-2.525 -0.74,-7.432 -2.066,-8.532 -0.524,-0.437 -1.021,-0.696 -1.441,-0.696 -0.639,0 -1.099,0.603 -1.204,2.105 -0.176,2.489 0.966,6.473 3.501,9.041 0.324,0.33 0.669,0.687 1.031,1.064 m 19.88,10.488 c 0.547,0 1.056,-0.042 1.517,-0.129 2.868,-0.542 3.899,-1.281 2.784,-2.088 -0.432,-0.313 -1.229,-0.455 -2.258,-0.455 -1.623,0 -3.816,0.355 -6.031,0.963 -0.524,0.145 -1.146,0.376 -1.828,0.672 2.122,0.651 4.147,1.037 5.816,1.037 M 58.236,49.823 v 1 -1 c -1.55,0 -3.16,0.99 -4.067,1.838 -4.014,3.752 -1.02,10.818 0.188,12.123 0.125,0.135 0.349,0.479 0.585,0.841 0.612,0.939 1.516,2.324 3.021,3.899 -0.405,2.759 -0.867,5.375 -1.098,6.394 -0.092,0.407 -0.22,1.048 -0.381,1.854 -0.5,2.501 -1.316,6.582 -2.339,10.146 l -0.779,-0.966 c -0.258,0.19 -2.547,1.887 -3.292,2.811 l -0.078,0.097 c -0.66,0.815 -1.284,1.587 -2.073,2.774 -0.561,0.845 -0.753,1.971 -0.515,3.014 0.21,0.92 0.717,1.659 1.428,2.081 0.439,0.261 0.908,0.393 1.395,0.393 1.294,0 2.593,-0.886 4.209,-2.872 1.366,-1.68 2.694,-5.528 3.854,-9.885 0.32,-0.084 0.925,-0.422 2.833,-1.788 1.884,-1.348 6.187,-4.169 9.966,-6.193 2.603,0.91 4.847,1.354 6.849,1.354 1.621,0 3.085,-0.284 4.605,-0.894 3.162,-1.263 4.453,-2.789 4.316,-5.106 -0.107,-1.804 -2.626,-1.804 -3.454,-1.804 -2.343,0 -5.5,0.588 -7.051,0.982 -1.173,0.299 -2.675,0.867 -4.265,1.609 -0.913,-0.335 -1.825,-0.711 -2.717,-1.12 -2.785,-1.275 -5.264,-3.511 -7.349,-5.601 1.167,-9.521 -0.37,-13.349 -1.404,-14.789 -0.557,-0.78 -1.383,-1.191 -2.387,-1.192 l 0,0 z m 0.422,12.476 c -1.957,-2.327 -2.863,-5.622 -2.715,-7.718 0.054,-0.762 0.195,-1.065 0.259,-1.167 0.099,0.024 0.341,0.116 0.751,0.457 0.743,0.617 1.54,4.268 1.706,7.811 0.006,0.14 0.008,0.339 -10e-4,0.617 l 0,0 z m 0.469,18.737 c 0.813,-3.429 1.508,-6.911 2.028,-9.713 1.492,1.102 3.168,2.103 5.002,2.986 0.476,0.229 0.946,0.446 1.408,0.653 -1.881,1.143 -3.771,2.442 -5.635,3.883 -1.189,0.92 -2.104,1.631 -2.803,2.191 l 0,0 z m 18.231,-7.098 c 1.521,-0.326 2.939,-0.506 4.044,-0.506 0.521,0 0.89,0.04 1.146,0.089 -0.378,0.137 -0.964,0.303 -1.857,0.472 -0.392,0.073 -0.838,0.111 -1.331,0.111 -0.605,0 -1.277,-0.057 -2.002,-0.166 l 0,0 z M 51.514,93.441 c -0.167,-0.269 -0.434,-1.287 -0.012,-2.314 0.299,-0.729 1.303,-1.863 2.206,-2.762 -0.243,0.762 -0.496,1.482 -0.757,2.138 -0.723,1.816 -1.167,2.613 -1.404,2.958 -0.011,-0.007 -0.022,-0.013 -0.033,-0.02 l 0,0 z"
        id="path25"
        inkscape:connector-curvature="0"
        style="fill:#ffffff" />
  </g>
  <linearGradient
      id="SVGID_4_"
      gradientUnits="userSpaceOnUse"
      x1="305.8298"
      y1="-329.21701"
      x2="288.64319"
      y2="-260.28531"
      gradientTransform="matrix(1,0,0,-1,-233.8203,-209.0952)">
    <stop
        offset="0"
        style="stop-color:#FEEE74"
        id="stop53" />
    <stop
        offset="0.097"
        style="stop-color:#FDF4A6"
        id="stop55" />
    <stop
        offset="0.3758"
        style="stop-color:#FDED68"
        id="stop57" />
    <stop
        offset="0.8"
        style="stop-color:#F7E937"
        id="stop59" />
    <stop
        offset="0.9091"
        style="stop-color:#FEF28F"
        id="stop61" />
    <stop
        offset="1"
        style="stop-color:#F7E937"
        id="stop63" />
  </linearGradient>
</svg>
